<svg width="3044" height="469" viewBox="0 0 3044 469" fill="none" xmlns="http://www.w3.org/2000/svg">
<path d="M103.391 142.734H109.578C132.359 142.734 159.266 149.766 190.297 163.828C278.891 196.641 361.297 213.047 437.516 213.047H457.203C524.891 213.047 591.359 200.203 656.609 174.516C672.547 166.828 681.266 162.984 682.766 162.984H684.453C689.422 164.578 691.906 167.438 691.906 171.562V173.25C691.906 178.031 685.016 183.047 671.234 188.297C655.484 196.641 628.484 205.688 590.234 215.438C544.203 226.781 496.484 232.453 447.078 232.453C351.359 232.453 252.359 211.031 150.078 168.188C134.516 163.781 120.078 161.578 106.766 161.578H106.203C71.4219 161.578 44.9844 172.547 26.8906 194.484C21.7344 203.016 19.1562 211.125 19.1562 218.812C19.1562 238.875 27.3594 255.938 43.7656 270C49.4844 274.219 57.1719 278.297 66.8281 282.234C68.7969 284.766 69.7812 287.625 69.7812 290.812C67.9062 296.156 64.4844 298.828 59.5156 298.828C37.9531 292.172 21.5469 279 10.2969 259.312C3.64063 245.344 0.3125 231.656 0.3125 218.25C0.3125 191.812 16.1563 170.672 47.8438 154.828C66.0312 146.766 84.5469 142.734 103.391 142.734ZM761.094 108.562H762.781C776.094 108.562 784.766 114.609 788.797 126.703V130.641C788.797 139.734 781.438 149.016 766.719 158.484C742.812 168.891 721.531 174.094 702.875 174.094L699.641 173.531C691.203 174.562 686.984 177.891 686.984 183.516V186.891C686.984 198.141 696.547 206.578 715.672 212.203C723.359 213.234 731.047 214.125 738.734 214.875C760.297 214.875 783.922 209.156 809.609 197.719C818.141 193.406 831.406 184.172 849.406 170.016C853.344 166.922 856.531 165.375 858.969 165.375H863.75C868.156 167.625 870.359 170.672 870.359 174.516C870.359 179.203 859.719 188.062 838.438 201.094C809.562 221.344 773.844 231.469 731.281 231.469C705.875 231.469 686.281 221.109 672.5 200.391C669.969 194.391 668.703 188.766 668.703 183.516C668.703 165.703 686.141 146.906 721.016 127.125C738.359 114.75 751.719 108.562 761.094 108.562ZM708.359 156.797C711.266 157.641 712.812 158.062 713 158.062C749.281 151.125 768.828 141.844 771.641 130.219V127.828C771.641 126.234 769.719 125.156 765.875 124.594H764.469C758.188 124.594 740.516 134.672 711.453 154.828C709.391 156.516 708.359 157.172 708.359 156.797ZM873.031 107.859H874.719C880.25 107.859 883.297 111.375 883.859 118.406C878.609 143.25 875.984 156.656 875.984 158.625V158.484H873.031C874.438 158.484 878.281 154.688 884.562 147.094C894.5 139.312 904.156 135.422 913.531 135.422C923.375 135.422 933.266 140.859 943.203 151.734H942.219C943.156 151.734 949.484 148.828 961.203 143.016C968.141 140.953 974.375 139.922 979.906 139.922H983.281C1004 139.922 1018.02 148.172 1025.33 164.672C1030.02 177.141 1032.36 188.438 1032.36 198.562V204.75C1032.36 208.031 1031.05 219.75 1028.42 239.906C1028.42 246.938 1030.62 251.109 1035.03 252.422C1044.88 252.422 1055.84 243.984 1067.94 227.109C1073.09 216.422 1081.81 196.172 1094.09 166.359C1097.47 164.109 1100.61 162.984 1103.52 162.984C1109.7 164.484 1112.8 167.672 1112.8 172.547C1111.86 176.391 1107.08 187.172 1098.45 204.891C1089.36 232.641 1075.34 251.812 1056.41 262.406C1049.19 266.062 1042.81 267.891 1037.28 267.891H1033.91C1022.19 267.891 1014.5 262.359 1010.84 251.297C1009.62 246.141 1009.02 242.25 1009.02 239.625V237.375C1009.02 234.75 1010.14 224.578 1012.39 206.859C1012.77 205.547 1012.95 204.281 1012.95 203.062C1012.95 183.656 1008.12 169.219 998.469 159.75C993.781 156.844 988.719 155.391 983.281 155.391C970.625 155.391 960.5 160.688 952.906 171.281C952.625 173.156 952.484 174.094 952.484 174.094C955.859 191.625 957.547 202.969 957.547 208.125C957.547 223.031 950.938 234.938 937.719 243.844C934.625 245.25 932.188 245.953 930.406 245.953H929.844C921.875 245.953 917.328 239.766 916.203 227.391V222.75C916.203 215.438 919.953 198.75 927.453 172.688V171.562C927.453 162.375 923.375 155.906 915.219 152.156C915.031 152.062 914.469 152.016 913.531 152.016C901.906 152.016 885.734 173.438 865.016 216.281C858.172 231.938 852.406 239.766 847.719 239.766H845.609C839.797 238.359 836.891 235.312 836.891 230.625C845.234 203.344 852.969 171.797 860.094 135.984C864.406 117.234 868.719 107.859 873.031 107.859ZM940.391 199.266C935.703 207.609 933.359 215.625 933.359 223.312C933.359 224.531 933.125 225 932.656 224.719C935.938 222.469 937.578 216.75 937.578 207.562V201.234C937.297 199.922 938.234 199.266 940.391 199.266ZM1182.69 108.562H1184.38C1197.69 108.562 1206.36 114.609 1210.39 126.703V130.641C1210.39 139.734 1203.03 149.016 1188.31 158.484C1164.41 168.891 1143.12 174.094 1124.47 174.094L1121.23 173.531C1112.8 174.562 1108.58 177.891 1108.58 183.516V186.891C1108.58 198.141 1118.14 206.578 1137.27 212.203C1144.95 213.234 1152.64 214.125 1160.33 214.875C1181.89 214.875 1205.52 209.156 1231.2 197.719C1239.73 193.406 1253 184.172 1271 170.016C1274.94 166.922 1278.12 165.375 1280.56 165.375H1285.34C1289.75 167.625 1291.95 170.672 1291.95 174.516C1291.95 179.203 1281.31 188.062 1260.03 201.094C1231.16 221.344 1195.44 231.469 1152.88 231.469C1127.47 231.469 1107.88 221.109 1094.09 200.391C1091.56 194.391 1090.3 188.766 1090.3 183.516C1090.3 165.703 1107.73 146.906 1142.61 127.125C1159.95 114.75 1173.31 108.562 1182.69 108.562ZM1129.95 156.797C1132.86 157.641 1134.41 158.062 1134.59 158.062C1170.88 151.125 1190.42 141.844 1193.23 130.219V127.828C1193.23 126.234 1191.31 125.156 1187.47 124.594H1186.06C1179.78 124.594 1162.11 134.672 1133.05 154.828C1130.98 156.516 1129.95 157.172 1129.95 156.797ZM1290.69 113.906C1299.59 113.906 1305.08 119.859 1307.14 131.766V136.125C1306.2 146.531 1302.36 157.125 1295.61 167.906C1294.39 171.469 1294.02 173.25 1294.48 173.25C1294.39 171.562 1296.31 170.719 1300.25 170.719C1310.19 170.719 1321.62 165.328 1334.56 154.547C1338.12 151.828 1341.55 150.469 1344.83 150.469C1351.2 150.938 1354.39 153.797 1354.39 159.047C1354.39 161.203 1350.78 166.594 1343.56 175.219C1335.88 187.406 1330.11 207.609 1326.27 235.828V237.516C1328.33 248.109 1332.59 253.406 1339.06 253.406H1341.88C1352.84 253.406 1364.52 247.594 1376.89 235.969C1390.58 217.875 1401.78 198.422 1410.5 177.609C1413.12 168.891 1416.88 164.531 1421.75 164.531H1424C1427 164.531 1429.11 167.25 1430.33 172.688V174.234C1424.61 191.109 1415.23 209.953 1402.2 230.766C1388.42 250.641 1374.08 263.109 1359.17 268.172C1352.61 269.766 1346.09 270.562 1339.62 270.562C1325.19 270.562 1315.25 263.156 1309.81 248.344C1308.97 244.125 1308.55 240.422 1308.55 237.234V232.734C1308.55 221.016 1311.55 205.828 1317.55 187.172V185.203L1317.69 185.625H1317.41C1308.59 187.125 1302.12 187.875 1298 187.875C1278.41 187.875 1265.42 178.5 1259.05 159.75L1258.48 154.125C1258.48 141.656 1265.38 129.375 1279.16 117.281C1284.31 115.031 1288.16 113.906 1290.69 113.906ZM1276.77 155.109C1276.77 158.016 1277.28 159.469 1278.31 159.469C1281.31 159.469 1284.69 153 1288.44 140.062C1289.09 137.625 1289.42 135.422 1289.42 133.453C1289.14 131.859 1289 131.062 1289 131.062C1285.53 131.062 1281.78 136.969 1277.75 148.781C1277.09 151.406 1276.77 153.516 1276.77 155.109ZM1464.22 121.641C1478 121.641 1490.09 129.188 1500.5 144.281C1512.97 173.438 1520.23 188.016 1522.3 188.016C1525.86 187.078 1535.28 182.672 1550.56 174.797C1568.66 167.484 1585.86 163.828 1602.17 163.828C1612.67 164.859 1617.92 167.531 1617.92 171.844V174.094C1617.92 178.781 1614.92 181.641 1608.92 182.672C1604.61 182.297 1601 182.109 1598.09 182.109H1597.11C1576.95 183.797 1555.81 191.297 1533.69 204.609C1532.84 205.266 1532.42 205.219 1532.42 204.469V208.406C1532.42 209.25 1536.12 218.203 1543.53 235.266C1559.38 287.391 1567.3 323.812 1567.3 344.531V354.656C1567.3 379.312 1562.14 401.391 1551.83 420.891C1544.61 437.297 1536.36 449.344 1527.08 457.031C1515.17 465 1502.66 468.984 1489.53 468.984H1487.84C1459.44 468.984 1435.53 451.875 1416.12 417.656C1409.09 404.719 1405.58 390.469 1405.58 374.906V363.656C1405.58 319.125 1427.66 273.469 1471.81 226.688C1479.59 219.375 1490.75 210.469 1505.28 199.969L1506.12 197.859C1504.91 191.672 1502.09 186.422 1497.69 182.109H1499.38C1499.28 182.109 1496.09 188.672 1489.81 201.797C1481.56 213.797 1471.16 219.797 1458.59 219.797H1454.66C1439.66 219.797 1427.19 212.062 1417.25 196.594C1415.09 191.531 1414.02 185.719 1414.02 179.156V176.906C1414.02 160.312 1423.91 143.766 1443.69 127.266C1450.72 123.516 1457.56 121.641 1464.22 121.641ZM1432.3 181.406V183.094C1432.3 193.5 1440.45 200.391 1456.77 203.766H1459.16C1466.94 203.766 1474.25 194.484 1481.09 175.922C1482.88 168.891 1483.77 162.422 1483.77 156.516C1480.77 143.578 1475.75 137.109 1468.72 137.109H1464.78C1456.25 137.109 1447.3 144.234 1437.92 158.484C1434.17 165.234 1432.3 172.875 1432.3 181.406ZM1424.98 369.844C1424.98 393.281 1430.94 411.891 1442.84 425.672C1455.31 443.484 1471.06 452.391 1490.09 452.391C1517 452.391 1535.75 428.016 1546.34 379.266C1548.12 371.203 1549.02 361.688 1549.02 350.719C1549.02 322.312 1540.86 283.734 1524.55 234.984C1519.58 223.359 1516.67 217.266 1515.83 216.703C1504.02 219.516 1485.88 236.203 1461.41 266.766C1437.12 300.609 1424.98 334.969 1424.98 369.844ZM1690.62 108.562H1692.31C1705.62 108.562 1714.3 114.609 1718.33 126.703V130.641C1718.33 139.734 1710.97 149.016 1696.25 158.484C1672.34 168.891 1651.06 174.094 1632.41 174.094L1629.17 173.531C1620.73 174.562 1616.52 177.891 1616.52 183.516V186.891C1616.52 198.141 1626.08 206.578 1645.2 212.203C1652.89 213.234 1660.58 214.125 1668.27 214.875C1689.83 214.875 1713.45 209.156 1739.14 197.719C1747.67 193.406 1760.94 184.172 1778.94 170.016C1782.88 166.922 1786.06 165.375 1788.5 165.375H1793.28C1797.69 167.625 1799.89 170.672 1799.89 174.516C1799.89 179.203 1789.25 188.062 1767.97 201.094C1739.09 221.344 1703.38 231.469 1660.81 231.469C1635.41 231.469 1615.81 221.109 1602.03 200.391C1599.5 194.391 1598.23 188.766 1598.23 183.516C1598.23 165.703 1615.67 146.906 1650.55 127.125C1667.89 114.75 1681.25 108.562 1690.62 108.562ZM1637.89 156.797C1640.8 157.641 1642.34 158.062 1642.53 158.062C1678.81 151.125 1698.36 141.844 1701.17 130.219V127.828C1701.17 126.234 1699.25 125.156 1695.41 124.594H1694C1687.72 124.594 1670.05 134.672 1640.98 154.828C1638.92 156.516 1637.89 157.172 1637.89 156.797ZM1847.98 122.625H1849.11C1860.36 122.625 1871.09 128.016 1881.31 138.797C1884.03 139.547 1892.84 140.531 1907.75 141.75C1918.81 145.219 1926.55 151.125 1930.95 159.469C1936.11 170.344 1938.69 187.547 1938.69 211.078V217.266C1938.69 227.578 1942.39 234.328 1949.8 237.516C1952.33 238.172 1954.39 238.5 1955.98 238.5C1972.86 238.5 1991.47 219.516 2011.81 181.547C2015.56 170.391 2020.86 164.812 2027.7 164.812C2033.61 165.844 2036.56 168.703 2036.56 173.391V176.484C2033.75 179.578 2028.97 188.438 2022.22 203.062C2017.72 212.062 2010.22 222.047 1999.72 233.016C1988.94 246.984 1974.92 253.969 1957.67 253.969H1952.05C1936.86 253.969 1926.31 245.531 1920.41 228.656C1917.88 191.531 1916.14 172.969 1915.2 172.969C1911.08 161.344 1905.17 155.531 1897.48 155.531H1894.11C1888.95 155.531 1886.38 157.172 1886.38 160.453C1886.38 191.953 1877.56 217.734 1859.94 237.797C1852.44 243.703 1846.58 246.656 1842.36 246.656H1840.67C1832.23 246.656 1827.5 240.844 1826.47 229.219C1826.47 208.969 1836.31 184.5 1856 155.812C1860.69 151.594 1863.03 149.016 1863.03 148.078V146.953C1863.03 143.672 1859.14 140.719 1851.36 138.094H1848.55C1836.55 138.094 1818.92 151.781 1795.67 179.156C1794.64 179.156 1793.19 179.906 1791.31 181.406H1785.83C1782.17 179.531 1780.34 176.859 1780.34 173.391V172.828C1780.34 165.234 1792.48 151.875 1816.77 132.75C1829.05 126 1839.45 122.625 1847.98 122.625ZM1845.88 222.188C1846.25 224.062 1846.44 226.359 1846.44 229.078V226.125H1845.17C1849.2 226.125 1854.64 216.469 1861.48 197.156C1863.27 190.594 1864.53 183.094 1865.28 174.656C1864.16 172.5 1863.59 172.828 1863.59 175.641C1861.06 176.953 1856.05 187.406 1848.55 207C1847.14 213 1846.25 218.062 1845.88 222.188ZM2089.3 112.5C2106.83 115.219 2115.59 122.766 2115.59 135.141C2115.59 139.453 2113.48 143.062 2109.27 145.969H2105.89C2102.61 145.969 2100.03 141.516 2098.16 132.609C2096.09 129.516 2093.05 127.969 2089.02 127.969C2075.33 127.969 2059.06 140.016 2040.22 164.109C2032.72 176.484 2028.97 187.828 2028.97 198.141V198.703C2028.97 218.203 2036.05 230.016 2050.2 234.141C2052.92 235.172 2057.28 235.875 2063.28 236.25C2085.12 236.25 2114 223.547 2149.91 198.141C2155.06 193.922 2165.14 184.031 2180.14 168.469C2183.52 166.031 2186.7 164.812 2189.7 164.812H2190.27C2195.23 164.812 2198.09 167.766 2198.84 173.672C2198.84 177.516 2190.41 187.078 2173.53 202.359C2162.09 213.141 2146.11 223.828 2125.58 234.422C2102.8 247.078 2081.61 253.406 2062.02 253.406C2037.73 253.406 2021.42 240.328 2013.08 214.172C2012.23 210.047 2011.81 206.391 2011.81 203.203V200.953C2011.81 168.234 2028.31 141.938 2061.31 122.062C2071.16 115.688 2080.48 112.5 2089.3 112.5ZM2270.56 108.562H2272.25C2285.56 108.562 2294.23 114.609 2298.27 126.703V130.641C2298.27 139.734 2290.91 149.016 2276.19 158.484C2252.28 168.891 2231 174.094 2212.34 174.094L2209.11 173.531C2200.67 174.562 2196.45 177.891 2196.45 183.516V186.891C2196.45 198.141 2206.02 206.578 2225.14 212.203C2232.83 213.234 2240.52 214.125 2248.2 214.875C2269.77 214.875 2293.39 209.156 2319.08 197.719C2327.61 193.406 2340.88 184.172 2358.88 170.016C2362.81 166.922 2366 165.375 2368.44 165.375H2373.22C2377.62 167.625 2379.83 170.672 2379.83 174.516C2379.83 179.203 2369.19 188.062 2347.91 201.094C2319.03 221.344 2283.31 231.469 2240.75 231.469C2215.34 231.469 2195.75 221.109 2181.97 200.391C2179.44 194.391 2178.17 188.766 2178.17 183.516C2178.17 165.703 2195.61 146.906 2230.48 127.125C2247.83 114.75 2261.19 108.562 2270.56 108.562ZM2217.83 156.797C2220.73 157.641 2222.28 158.062 2222.47 158.062C2258.75 151.125 2278.3 141.844 2281.11 130.219V127.828C2281.11 126.234 2279.19 125.156 2275.34 124.594H2273.94C2267.66 124.594 2249.98 134.672 2220.92 154.828C2218.86 156.516 2217.83 157.172 2217.83 156.797ZM2967.22 0.84375H2972.28C2994.97 0.84375 3013.48 8.95312 3027.83 25.1719C3038.14 38.8594 3043.3 54.6094 3043.3 72.4219V79.7344C3043.3 99.7969 3033.12 118.359 3012.78 135.422C2999.84 145.078 2987.89 151.969 2976.92 156.094C2933.23 174.281 2876.94 183.375 2808.03 183.375C2760.88 183.375 2707.81 178.312 2648.84 168.188C2619.69 163.312 2587.25 160.875 2551.53 160.875C2487.78 160.875 2425.91 168.609 2365.91 184.078C2359.81 182.391 2356.77 179.297 2356.77 174.797V171.984C2356.77 167.109 2365.95 163.125 2384.33 160.031C2438.8 147.656 2494.53 141.469 2551.53 141.469C2594.38 141.469 2642.75 146.344 2696.66 156.094C2734.91 161.344 2771.28 163.969 2805.78 163.969H2810.84C2897.19 163.969 2960.42 149.578 3000.55 120.797C3016.48 107.484 3024.45 92.8594 3024.45 76.9219C3024.45 50.8594 3015.22 33.5625 2996.75 25.0312C2987.19 21.4687 2977.72 19.6875 2968.34 19.6875C2966.66 19.6875 2958.83 20.4375 2944.86 21.9375C2940.08 21.9375 2937.36 18.375 2936.7 11.25C2936.7 4.3125 2946.88 0.84375 2967.22 0.84375Z" fill="#00BBD3"/>
</svg>
