<svg width="972" height="967" viewBox="0 0 972 967" fill="none" xmlns="http://www.w3.org/2000/svg">
<path fill-rule="evenodd" clip-rule="evenodd" d="M0 483.5C0 216.47 217.59 0 486 0C754.41 0 972 216.47 972 483.5C972 750.53 754.41 967 486 967C217.59 967 0 750.53 0 483.5Z" fill="#185A7F"/>
<path fill-rule="evenodd" clip-rule="evenodd" d="M164.056 526.037V262.988H237.045L246.718 172.34H164.056L164.18 126.969C164.18 103.327 166.438 90.6586 200.571 90.6586H246.201V0H173.202C85.5185 0 54.6562 43.9742 54.6562 117.925V172.35H0V262.998H54.6562V526.037H164.056Z" transform="translate(372.6 241.75)" fill="white"/>
</svg>
