<svg width="1309" height="1303" viewBox="0 0 1309 1303" fill="none" xmlns="http://www.w3.org/2000/svg">
<path fill-rule="evenodd" clip-rule="evenodd" d="M654.5 1303C1015.97 1303 1309 1011.31 1309 651.5C1309 291.686 1015.97 0 654.5 0C293.03 0 0 291.686 0 651.5C0 1011.31 293.03 1303 654.5 1303Z" fill="#0096A6"/>
<path fill-rule="evenodd" clip-rule="evenodd" d="M24.6603 374.821C86.8553 520.239 262.553 781.8 262.553 781.8C262.553 781.8 466.131 464.488 507.808 354.162H507.53C517.924 325.805 523.6 295.154 523.6 263.17C523.6 117.825 406.388 0 261.8 0C117.212 0 0 117.825 0 263.17C0 303.086 8.84037 340.927 24.6603 374.821V374.821ZM261.799 412.616C346.142 412.616 414.515 344.556 414.515 260.599C414.515 176.643 346.142 108.583 261.799 108.583C177.456 108.583 109.082 176.643 109.082 260.599C109.082 344.556 177.456 412.616 261.799 412.616V412.616Z" transform="translate(392.699 260.599)" fill="white"/>
</svg>
