<svg width="3044" height="469" viewBox="0 0 3044 469" fill="none" xmlns="http://www.w3.org/2000/svg">
<path d="M105.391 253.734H111.578C134.359 253.734 161.266 260.766 192.297 274.828C280.891 307.641 363.297 324.047 439.516 324.047H459.203C526.891 324.047 593.359 311.203 658.609 285.516C674.547 277.828 683.266 273.984 684.766 273.984H686.453C691.422 275.578 693.906 278.438 693.906 282.562V284.25C693.906 289.031 687.016 294.047 673.234 299.297C657.484 307.641 630.484 316.688 592.234 326.438C546.203 337.781 498.484 343.453 449.078 343.453C353.359 343.453 254.359 322.031 152.078 279.188C136.516 274.781 122.078 272.578 108.766 272.578H108.203C73.4219 272.578 46.9844 283.547 28.8906 305.484C23.7344 314.016 21.1562 322.125 21.1562 329.812C21.1562 349.875 29.3594 366.938 45.7656 381C51.4844 385.219 59.1719 389.297 68.8281 393.234C70.7969 395.766 71.7812 398.625 71.7812 401.812C69.9062 407.156 66.4844 409.828 61.5156 409.828C39.9531 403.172 23.5469 390 12.2969 370.312C5.64063 356.344 2.3125 342.656 2.3125 329.25C2.3125 302.812 18.1563 281.672 49.8438 265.828C68.0312 257.766 86.5469 253.734 105.391 253.734ZM763.094 219.562H764.781C778.094 219.562 786.766 225.609 790.797 237.703V241.641C790.797 250.734 783.438 260.016 768.719 269.484C744.812 279.891 723.531 285.094 704.875 285.094L701.641 284.531C693.203 285.562 688.984 288.891 688.984 294.516V297.891C688.984 309.141 698.547 317.578 717.672 323.203C725.359 324.234 733.047 325.125 740.734 325.875C762.297 325.875 785.922 320.156 811.609 308.719C820.141 304.406 833.406 295.172 851.406 281.016C855.344 277.922 858.531 276.375 860.969 276.375H865.75C870.156 278.625 872.359 281.672 872.359 285.516C872.359 290.203 861.719 299.062 840.438 312.094C811.562 332.344 775.844 342.469 733.281 342.469C707.875 342.469 688.281 332.109 674.5 311.391C671.969 305.391 670.703 299.766 670.703 294.516C670.703 276.703 688.141 257.906 723.016 238.125C740.359 225.75 753.719 219.562 763.094 219.562ZM710.359 267.797C713.266 268.641 714.812 269.062 715 269.062C751.281 262.125 770.828 252.844 773.641 241.219V238.828C773.641 237.234 771.719 236.156 767.875 235.594H766.469C760.188 235.594 742.516 245.672 713.453 265.828C711.391 267.516 710.359 268.172 710.359 267.797ZM875.031 218.859H876.719C882.25 218.859 885.297 222.375 885.859 229.406C880.609 254.25 877.984 267.656 877.984 269.625V269.484H875.031C876.438 269.484 880.281 265.688 886.562 258.094C896.5 250.312 906.156 246.422 915.531 246.422C925.375 246.422 935.266 251.859 945.203 262.734H944.219C945.156 262.734 951.484 259.828 963.203 254.016C970.141 251.953 976.375 250.922 981.906 250.922H985.281C1006 250.922 1020.02 259.172 1027.33 275.672C1032.02 288.141 1034.36 299.438 1034.36 309.562V315.75C1034.36 319.031 1033.05 330.75 1030.42 350.906C1030.42 357.938 1032.62 362.109 1037.03 363.422C1046.88 363.422 1057.84 354.984 1069.94 338.109C1075.09 327.422 1083.81 307.172 1096.09 277.359C1099.47 275.109 1102.61 273.984 1105.52 273.984C1111.7 275.484 1114.8 278.672 1114.8 283.547C1113.86 287.391 1109.08 298.172 1100.45 315.891C1091.36 343.641 1077.34 362.812 1058.41 373.406C1051.19 377.062 1044.81 378.891 1039.28 378.891H1035.91C1024.19 378.891 1016.5 373.359 1012.84 362.297C1011.62 357.141 1011.02 353.25 1011.02 350.625V348.375C1011.02 345.75 1012.14 335.578 1014.39 317.859C1014.77 316.547 1014.95 315.281 1014.95 314.062C1014.95 294.656 1010.12 280.219 1000.47 270.75C995.781 267.844 990.719 266.391 985.281 266.391C972.625 266.391 962.5 271.688 954.906 282.281C954.625 284.156 954.484 285.094 954.484 285.094C957.859 302.625 959.547 313.969 959.547 319.125C959.547 334.031 952.938 345.938 939.719 354.844C936.625 356.25 934.188 356.953 932.406 356.953H931.844C923.875 356.953 919.328 350.766 918.203 338.391V333.75C918.203 326.438 921.953 309.75 929.453 283.688V282.562C929.453 273.375 925.375 266.906 917.219 263.156C917.031 263.062 916.469 263.016 915.531 263.016C903.906 263.016 887.734 284.438 867.016 327.281C860.172 342.938 854.406 350.766 849.719 350.766H847.609C841.797 349.359 838.891 346.312 838.891 341.625C847.234 314.344 854.969 282.797 862.094 246.984C866.406 228.234 870.719 218.859 875.031 218.859ZM942.391 310.266C937.703 318.609 935.359 326.625 935.359 334.312C935.359 335.531 935.125 336 934.656 335.719C937.938 333.469 939.578 327.75 939.578 318.562V312.234C939.297 310.922 940.234 310.266 942.391 310.266ZM1184.69 219.562H1186.38C1199.69 219.562 1208.36 225.609 1212.39 237.703V241.641C1212.39 250.734 1205.03 260.016 1190.31 269.484C1166.41 279.891 1145.12 285.094 1126.47 285.094L1123.23 284.531C1114.8 285.562 1110.58 288.891 1110.58 294.516V297.891C1110.58 309.141 1120.14 317.578 1139.27 323.203C1146.95 324.234 1154.64 325.125 1162.33 325.875C1183.89 325.875 1207.52 320.156 1233.2 308.719C1241.73 304.406 1255 295.172 1273 281.016C1276.94 277.922 1280.12 276.375 1282.56 276.375H1287.34C1291.75 278.625 1293.95 281.672 1293.95 285.516C1293.95 290.203 1283.31 299.062 1262.03 312.094C1233.16 332.344 1197.44 342.469 1154.88 342.469C1129.47 342.469 1109.88 332.109 1096.09 311.391C1093.56 305.391 1092.3 299.766 1092.3 294.516C1092.3 276.703 1109.73 257.906 1144.61 238.125C1161.95 225.75 1175.31 219.562 1184.69 219.562ZM1131.95 267.797C1134.86 268.641 1136.41 269.062 1136.59 269.062C1172.88 262.125 1192.42 252.844 1195.23 241.219V238.828C1195.23 237.234 1193.31 236.156 1189.47 235.594H1188.06C1181.78 235.594 1164.11 245.672 1135.05 265.828C1132.98 267.516 1131.95 268.172 1131.95 267.797ZM1292.69 224.906C1301.59 224.906 1307.08 230.859 1309.14 242.766V247.125C1308.2 257.531 1304.36 268.125 1297.61 278.906C1296.39 282.469 1296.02 284.25 1296.48 284.25C1296.39 282.562 1298.31 281.719 1302.25 281.719C1312.19 281.719 1323.62 276.328 1336.56 265.547C1340.12 262.828 1343.55 261.469 1346.83 261.469C1353.2 261.938 1356.39 264.797 1356.39 270.047C1356.39 272.203 1352.78 277.594 1345.56 286.219C1337.88 298.406 1332.11 318.609 1328.27 346.828V348.516C1330.33 359.109 1334.59 364.406 1341.06 364.406H1343.88C1354.84 364.406 1366.52 358.594 1378.89 346.969C1392.58 328.875 1403.78 309.422 1412.5 288.609C1415.12 279.891 1418.88 275.531 1423.75 275.531H1426C1429 275.531 1431.11 278.25 1432.33 283.688V285.234C1426.61 302.109 1417.23 320.953 1404.2 341.766C1390.42 361.641 1376.08 374.109 1361.17 379.172C1354.61 380.766 1348.09 381.562 1341.62 381.562C1327.19 381.562 1317.25 374.156 1311.81 359.344C1310.97 355.125 1310.55 351.422 1310.55 348.234V343.734C1310.55 332.016 1313.55 316.828 1319.55 298.172V296.203L1319.69 296.625H1319.41C1310.59 298.125 1304.12 298.875 1300 298.875C1280.41 298.875 1267.42 289.5 1261.05 270.75L1260.48 265.125C1260.48 252.656 1267.38 240.375 1281.16 228.281C1286.31 226.031 1290.16 224.906 1292.69 224.906ZM1278.77 266.109C1278.77 269.016 1279.28 270.469 1280.31 270.469C1283.31 270.469 1286.69 264 1290.44 251.062C1291.09 248.625 1291.42 246.422 1291.42 244.453C1291.14 242.859 1291 242.062 1291 242.062C1287.53 242.062 1283.78 247.969 1279.75 259.781C1279.09 262.406 1278.77 264.516 1278.77 266.109ZM1466.22 232.641C1480 232.641 1492.09 240.188 1502.5 255.281C1514.97 284.438 1522.23 299.016 1524.3 299.016C1527.86 298.078 1537.28 293.672 1552.56 285.797C1570.66 278.484 1587.86 274.828 1604.17 274.828C1614.67 275.859 1619.92 278.531 1619.92 282.844V285.094C1619.92 289.781 1616.92 292.641 1610.92 293.672C1606.61 293.297 1603 293.109 1600.09 293.109H1599.11C1578.95 294.797 1557.81 302.297 1535.69 315.609C1534.84 316.266 1534.42 316.219 1534.42 315.469V319.406C1534.42 320.25 1538.12 329.203 1545.53 346.266C1561.38 398.391 1569.3 434.812 1569.3 455.531V465.656C1569.3 490.312 1564.14 512.391 1553.83 531.891C1546.61 548.297 1538.36 560.344 1529.08 568.031C1517.17 576 1504.66 579.984 1491.53 579.984H1489.84C1461.44 579.984 1437.53 562.875 1418.12 528.656C1411.09 515.719 1407.58 501.469 1407.58 485.906V474.656C1407.58 430.125 1429.66 384.469 1473.81 337.688C1481.59 330.375 1492.75 321.469 1507.28 310.969L1508.12 308.859C1506.91 302.672 1504.09 297.422 1499.69 293.109H1501.38C1501.28 293.109 1498.09 299.672 1491.81 312.797C1483.56 324.797 1473.16 330.797 1460.59 330.797H1456.66C1441.66 330.797 1429.19 323.062 1419.25 307.594C1417.09 302.531 1416.02 296.719 1416.02 290.156V287.906C1416.02 271.312 1425.91 254.766 1445.69 238.266C1452.72 234.516 1459.56 232.641 1466.22 232.641ZM1434.3 292.406V294.094C1434.3 304.5 1442.45 311.391 1458.77 314.766H1461.16C1468.94 314.766 1476.25 305.484 1483.09 286.922C1484.88 279.891 1485.77 273.422 1485.77 267.516C1482.77 254.578 1477.75 248.109 1470.72 248.109H1466.78C1458.25 248.109 1449.3 255.234 1439.92 269.484C1436.17 276.234 1434.3 283.875 1434.3 292.406ZM1426.98 480.844C1426.98 504.281 1432.94 522.891 1444.84 536.672C1457.31 554.484 1473.06 563.391 1492.09 563.391C1519 563.391 1537.75 539.016 1548.34 490.266C1550.12 482.203 1551.02 472.688 1551.02 461.719C1551.02 433.312 1542.86 394.734 1526.55 345.984C1521.58 334.359 1518.67 328.266 1517.83 327.703C1506.02 330.516 1487.88 347.203 1463.41 377.766C1439.12 411.609 1426.98 445.969 1426.98 480.844ZM1692.62 219.562H1694.31C1707.62 219.562 1716.3 225.609 1720.33 237.703V241.641C1720.33 250.734 1712.97 260.016 1698.25 269.484C1674.34 279.891 1653.06 285.094 1634.41 285.094L1631.17 284.531C1622.73 285.562 1618.52 288.891 1618.52 294.516V297.891C1618.52 309.141 1628.08 317.578 1647.2 323.203C1654.89 324.234 1662.58 325.125 1670.27 325.875C1691.83 325.875 1715.45 320.156 1741.14 308.719C1749.67 304.406 1762.94 295.172 1780.94 281.016C1784.88 277.922 1788.06 276.375 1790.5 276.375H1795.28C1799.69 278.625 1801.89 281.672 1801.89 285.516C1801.89 290.203 1791.25 299.062 1769.97 312.094C1741.09 332.344 1705.38 342.469 1662.81 342.469C1637.41 342.469 1617.81 332.109 1604.03 311.391C1601.5 305.391 1600.23 299.766 1600.23 294.516C1600.23 276.703 1617.67 257.906 1652.55 238.125C1669.89 225.75 1683.25 219.562 1692.62 219.562ZM1639.89 267.797C1642.8 268.641 1644.34 269.062 1644.53 269.062C1680.81 262.125 1700.36 252.844 1703.17 241.219V238.828C1703.17 237.234 1701.25 236.156 1697.41 235.594H1696C1689.72 235.594 1672.05 245.672 1642.98 265.828C1640.92 267.516 1639.89 268.172 1639.89 267.797ZM1849.98 233.625H1851.11C1862.36 233.625 1873.09 239.016 1883.31 249.797C1886.03 250.547 1894.84 251.531 1909.75 252.75C1920.81 256.219 1928.55 262.125 1932.95 270.469C1938.11 281.344 1940.69 298.547 1940.69 322.078V328.266C1940.69 338.578 1944.39 345.328 1951.8 348.516C1954.33 349.172 1956.39 349.5 1957.98 349.5C1974.86 349.5 1993.47 330.516 2013.81 292.547C2017.56 281.391 2022.86 275.812 2029.7 275.812C2035.61 276.844 2038.56 279.703 2038.56 284.391V287.484C2035.75 290.578 2030.97 299.438 2024.22 314.062C2019.72 323.062 2012.22 333.047 2001.72 344.016C1990.94 357.984 1976.92 364.969 1959.67 364.969H1954.05C1938.86 364.969 1928.31 356.531 1922.41 339.656C1919.88 302.531 1918.14 283.969 1917.2 283.969C1913.08 272.344 1907.17 266.531 1899.48 266.531H1896.11C1890.95 266.531 1888.38 268.172 1888.38 271.453C1888.38 302.953 1879.56 328.734 1861.94 348.797C1854.44 354.703 1848.58 357.656 1844.36 357.656H1842.67C1834.23 357.656 1829.5 351.844 1828.47 340.219C1828.47 319.969 1838.31 295.5 1858 266.812C1862.69 262.594 1865.03 260.016 1865.03 259.078V257.953C1865.03 254.672 1861.14 251.719 1853.36 249.094H1850.55C1838.55 249.094 1820.92 262.781 1797.67 290.156C1796.64 290.156 1795.19 290.906 1793.31 292.406H1787.83C1784.17 290.531 1782.34 287.859 1782.34 284.391V283.828C1782.34 276.234 1794.48 262.875 1818.77 243.75C1831.05 237 1841.45 233.625 1849.98 233.625ZM1847.88 333.188C1848.25 335.062 1848.44 337.359 1848.44 340.078V337.125H1847.17C1851.2 337.125 1856.64 327.469 1863.48 308.156C1865.27 301.594 1866.53 294.094 1867.28 285.656C1866.16 283.5 1865.59 283.828 1865.59 286.641C1863.06 287.953 1858.05 298.406 1850.55 318C1849.14 324 1848.25 329.062 1847.88 333.188ZM2091.3 223.5C2108.83 226.219 2117.59 233.766 2117.59 246.141C2117.59 250.453 2115.48 254.062 2111.27 256.969H2107.89C2104.61 256.969 2102.03 252.516 2100.16 243.609C2098.09 240.516 2095.05 238.969 2091.02 238.969C2077.33 238.969 2061.06 251.016 2042.22 275.109C2034.72 287.484 2030.97 298.828 2030.97 309.141V309.703C2030.97 329.203 2038.05 341.016 2052.2 345.141C2054.92 346.172 2059.28 346.875 2065.28 347.25C2087.12 347.25 2116 334.547 2151.91 309.141C2157.06 304.922 2167.14 295.031 2182.14 279.469C2185.52 277.031 2188.7 275.812 2191.7 275.812H2192.27C2197.23 275.812 2200.09 278.766 2200.84 284.672C2200.84 288.516 2192.41 298.078 2175.53 313.359C2164.09 324.141 2148.11 334.828 2127.58 345.422C2104.8 358.078 2083.61 364.406 2064.02 364.406C2039.73 364.406 2023.42 351.328 2015.08 325.172C2014.23 321.047 2013.81 317.391 2013.81 314.203V311.953C2013.81 279.234 2030.31 252.938 2063.31 233.062C2073.16 226.688 2082.48 223.5 2091.3 223.5ZM2272.56 219.562H2274.25C2287.56 219.562 2296.23 225.609 2300.27 237.703V241.641C2300.27 250.734 2292.91 260.016 2278.19 269.484C2254.28 279.891 2233 285.094 2214.34 285.094L2211.11 284.531C2202.67 285.562 2198.45 288.891 2198.45 294.516V297.891C2198.45 309.141 2208.02 317.578 2227.14 323.203C2234.83 324.234 2242.52 325.125 2250.2 325.875C2271.77 325.875 2295.39 320.156 2321.08 308.719C2329.61 304.406 2342.88 295.172 2360.88 281.016C2364.81 277.922 2368 276.375 2370.44 276.375H2375.22C2379.62 278.625 2381.83 281.672 2381.83 285.516C2381.83 290.203 2371.19 299.062 2349.91 312.094C2321.03 332.344 2285.31 342.469 2242.75 342.469C2217.34 342.469 2197.75 332.109 2183.97 311.391C2181.44 305.391 2180.17 299.766 2180.17 294.516C2180.17 276.703 2197.61 257.906 2232.48 238.125C2249.83 225.75 2263.19 219.562 2272.56 219.562ZM2219.83 267.797C2222.73 268.641 2224.28 269.062 2224.47 269.062C2260.75 262.125 2280.3 252.844 2283.11 241.219V238.828C2283.11 237.234 2281.19 236.156 2277.34 235.594H2275.94C2269.66 235.594 2251.98 245.672 2222.92 265.828C2220.86 267.516 2219.83 268.172 2219.83 267.797ZM2969.22 111.844H2974.28C2996.97 111.844 3015.48 119.953 3029.83 136.172C3040.14 149.859 3045.3 165.609 3045.3 183.422V190.734C3045.3 210.797 3035.12 229.359 3014.78 246.422C3001.84 256.078 2989.89 262.969 2978.92 267.094C2935.23 285.281 2878.94 294.375 2810.03 294.375C2762.88 294.375 2709.81 289.312 2650.84 279.188C2621.69 274.312 2589.25 271.875 2553.53 271.875C2489.78 271.875 2427.91 279.609 2367.91 295.078C2361.81 293.391 2358.77 290.297 2358.77 285.797V282.984C2358.77 278.109 2367.95 274.125 2386.33 271.031C2440.8 258.656 2496.53 252.469 2553.53 252.469C2596.38 252.469 2644.75 257.344 2698.66 267.094C2736.91 272.344 2773.28 274.969 2807.78 274.969H2812.84C2899.19 274.969 2962.42 260.578 3002.55 231.797C3018.48 218.484 3026.45 203.859 3026.45 187.922C3026.45 161.859 3017.22 144.562 2998.75 136.031C2989.19 132.469 2979.72 130.688 2970.34 130.688C2968.66 130.688 2960.83 131.438 2946.86 132.938C2942.08 132.938 2939.36 129.375 2938.7 122.25C2938.7 115.312 2948.88 111.844 2969.22 111.844Z" transform="translate(-2 -111)" fill="white"/>
</svg>
