<svg width="761" height="757" viewBox="0 0 761 757" fill="none" xmlns="http://www.w3.org/2000/svg">
<path fill-rule="evenodd" clip-rule="evenodd" d="M380.5 757C590.644 757 761 587.54 761 378.5C761 169.46 590.644 0 380.5 0C170.356 0 0 169.46 0 378.5C0 587.54 170.356 757 380.5 757Z" fill="#6A86E5"/>
<path fill-rule="evenodd" clip-rule="evenodd" d="M182.868 130.157C153.144 130.157 0.00012207 43.7697 0.00012207 43.7697V30.28C0.00012207 13.5654 13.6372 0 30.4706 0H335.266C352.115 0 365.752 13.5654 365.752 30.28L365.508 45.42C365.508 45.42 214.024 130.157 182.868 130.157ZM182.868 171.792C215.454 171.792 365.508 90.84 365.508 90.84L365.752 272.52C365.752 289.235 352.115 302.8 335.266 302.8H30.4704C13.6523 302.8 0 289.235 0 272.52L0.24352 90.84C0.2283 90.84 153.144 171.792 182.868 171.792Z" transform="translate(202.935 227.1)" fill="white"/>
</svg>
